# xmcd
#
# Track frame offsets:
#	150
#	17950
#	34492
#	47944
#	64733
#	81093
#	97486
#	114533
#	130526
#	147189
#	162130
#	175424
#	193196
#	206809
#	220226
#
# Disc length: 3128 seconds
#
# Revision: 0
# Processed by: cddbd v1.5.2PL0 Copyright (c) Steve Scherf et al.
# Submitted via: audiograbber 1.83.01
#
DISCID=e70c360f
DTITLE=Luke Bryan - What Makes You Country
DYEAR=2017
DGENRE=Country
TTITLE0=What Makes You Country
TTITLE1=Out Of Nowhere Girl
TTITLE2=Light It Up
TTITLE3=Most People Are Good
TTITLE4=Sunrise, Sunburn, Sunset
TTITLE5=Bad Lovers
TTITLE6=Drinking Again
TTITLE7=Land Of A Million Songs
TTITLE8=Like You Say You Do
TTITLE9=Hooked On It
TTITLE10=She's A Hot One
TTITLE11=Hungover In A Hotel Room
TTITLE12=Pick It Up
TTITLE13=Driving This Thing
TTITLE14=Win Life
EXTD=
EXTT0=
EXTT1=
EXTT2=
EXTT3=
EXTT4=
EXTT5=
EXTT6=
EXTT7=
EXTT8=
EXTT9=
EXTT10=
EXTT11=
EXTT12=
EXTT13=
EXTT14=
PLAYORDER=
